<svg width="1083" height="410" viewBox="0 0 1083 410" fill="none" xmlns="http://www.w3.org/2000/svg">
<path d="M702.25 108.23C687.08 113.4 685.05 113.83 683.39 112.17C682.73 111.51 630.48 111.25 527.71 111.42C373.43 111.68 373.03 111.67 373.62 109.68C374.91 105.37 381.74 93.7399 386.28 88.1299C395.4 76.8599 409.06 67.8299 423.5 63.5299C429.15 61.8499 440.77 61.7299 624.44 61.4399C731.5 61.2699 818.9 61.3399 818.91 61.6099H818.9C818.05 62.4599 796.02 72.1099 776.25 80.2899C754.5 89.2999 723.79 100.89 702.25 108.23ZM351.3 107.89C349.58 113.36 349.1 113.88 347.39 112.17C346.72 111.5 307.47 111.25 230.69 111.42C167.06 111.56 114.99 111.45 114.97 111.18C114.96 110.91 118.41 99.5399 122.65 85.9299L130.35 61.1799H380.24L374.78 67.4299C371.78 70.8699 367.71 75.9299 365.75 78.6799C361.46 84.6799 353.62 100.53 351.3 107.89Z" fill="white"/>
<path d="M400.5 172.63C390.6 173.45 375.62 174.43 367.22 174.8C354.33 175.38 352.02 175.27 352.4 174.09C352.65 173.31 356.98 159.63 362.01 143.68C366.58 129.19 370.27 118.54 373.69 110.3C375.18 111.67 391.3 111.65 527.71 111.42C630.48 111.25 682.73 111.51 683.39 112.17C684.64 113.42 686.1 113.49 693.26 111.22C658.19 122.93 621.49 133.58 582.23 143.46L565.5 147.66L473.64 148.68L471.07 156.65C468.61 164.28 468.35 164.66 465 165.33C458.77 166.6 419 171.09 400.5 172.63ZM351.3 107.89C353.62 100.53 361.46 84.6799 365.75 78.6799C366.95 76.9999 368.93 74.46 370.98 71.95C360.1 85.44 354.18 98.33 345.34 126.42L338.5 148.17H277.22C229.08 148.18 215.85 148.45 215.52 149.43C215.3 150.12 213.72 155.29 212.01 160.93L208.91 171.18L203.71 171.05C193.59 170.81 154.2 165.34 125 160.13C112.62 157.92 101.98 155.93 101.35 155.71C100.59 155.45 102.74 147.55 107.67 132.5C111.79 119.95 118.57 98.77 122.75 85.43L129.24 64.74L122.65 85.9299C118.41 99.5399 114.96 110.91 114.97 111.18C114.99 111.45 167.06 111.56 230.69 111.42C307.47 111.25 346.72 111.5 347.39 112.17C349.1 113.88 349.58 113.36 351.3 107.89ZM721.29 101.51C738.66 95.2 758.08 87.75 773.58 81.4C756.44 88.44 739.05 95.13 721.29 101.51ZM379.5 98.09C381.58 94.39 383.69 91.29 385.99 88.46C386.49 87.84 387 87.24 387.52 86.64C387.1 87.13 386.68 87.6299 386.28 88.1299C384.24 90.6399 381.75 94.36 379.5 98.09ZM401.83 73.93C408.46 69.38 415.83 65.82 423.49 63.54C415.87 65.8 408.46 69.39 401.83 73.93Z" fill="white"/>
<path d="M571.19 408.19C565.4 408.75 452.71 409.14 291.25 409.15C75.7 409.17 21 408.93 21 407.93C21.01 407.24 31.33 373.97 43.94 334C56.56 294.02 67.02 260.54 67.19 259.6C67.45 258.14 65.08 257.38 51.5 254.56C26.74 249.43 0 242.91 0 241.99C0 241.06 43.04 158.18 43.52 158.18C43.7 158.18 50.29 159.94 58.17 162.09C128.98 181.42 216.89 192.1 305.75 192.17C315.79 192.17 324 192.46 324 192.81C324 193.15 322.14 199.34 319.87 206.56C316.24 218.09 315.68 221.15 315.25 231.85C314.63 247.42 316.43 256.06 322.99 268.85L327.76 278.17L173.76 278.68L167.91 298.68C164.7 309.68 162.05 319.24 162.03 319.93C162.01 320.93 199.35 321.13 347.23 320.93L532.45 320.68L545.74 278.68L363.5 277.68L358.5 275.24C344.25 268.27 333.67 248.33 335.39 231.7C335.98 225.93 345.42 193.58 347.01 191.84C347.44 191.38 354.69 190.59 363.14 190.1C418.21 186.86 475.88 179.35 528.13 168.61C557.11 162.65 604.68 150.87 610.5 148.2C611.6 147.7 618.8 145.42 626.5 143.14C692.56 123.56 751.36 99.66 840.5 56.15C854.77 49.18 886.04 31.64 910.5 16.88C922.05 9.91999 933.07 3.26999 935 2.10999L938.5 0L934.37 3.84C916.16 20.79 898.61 35.69 877.69 51.98L865.88 61.18H973.94C1033.37 61.18 1082.02 61.52 1082.05 61.93C1082.08 62.34 1076.11 81.91 1068.8 105.42L1055.5 148.16L828.6 148.68L815.4 190.68L995.5 191.68L1001.62 194.51C1016.72 201.49 1027.49 221.28 1025.55 238.48C1024.82 244.9 991.95 350.68 987.06 362.35C978.79 382.06 961.21 398.82 942.14 405.16C938.64 406.32 930.77 407.72 924.64 408.26C917.74 408.87 857.33 409.14 766 408.96L618.5 408.68L624.78 405.27C632.49 401.1 641.28 391.9 645.95 383.15C647.85 379.59 653.31 364.3 658.08 349.18L666.74 321.68L887.43 320.68L893.65 301.18C897.07 290.45 899.9 280.89 899.93 279.93C900 278.28 895.1 278.18 810.54 278.18C722.25 278.18 721 278.15 715.49 276.09C705.02 272.17 694.98 259.67 691.47 246.18C688.58 235.06 689.59 229.62 701.44 192.28C707.27 173.91 711.85 158.7 711.63 158.47C711.4 158.25 703.07 162.14 693.11 167.13C683.15 172.11 667.46 179.6 658.25 183.78C649.04 187.95 641.35 191.5 641.17 191.68C640.99 191.86 643.6 193.23 646.97 194.74C662.33 201.64 673.3 223.18 670.31 240.55C668.81 249.22 635.42 355.16 631.39 364.02C622.64 383.25 605.73 398.98 587.19 405.14C583.72 406.3 576.52 407.67 571.19 408.19ZM770.87 82.51C755.68 88.7 740.3 94.63 724.63 100.31C740.15 94.61 757.04 88.13 770.87 82.51Z" fill="white"/>
</svg>
